HIERARCHY
ROOT Hips
{
 OFFSET 0.000000 0.000000 0.000000
 CHANNELS 6 Xposition Yposition Zposition Yrotation Xrotation Zrotation
 JOINT Chest
 {
  OFFSET 0.000000 13.173100 -0.061900
  CHANNELS 3 Yrotation Xrotation Zrotation
  JOINT Chest2
  {
   OFFSET 0.000000 8.040800 0.126200
   CHANNELS 3 Yrotation Xrotation Zrotation
   JOINT Chest3
   {
    OFFSET 0.000000 7.994400 0.000000
    CHANNELS 3 Yrotation Xrotation Zrotation
    JOINT Chest4
    {
     OFFSET 0.000000 7.986200 0.000000
     CHANNELS 3 Yrotation Xrotation Zrotation
     JOINT Neck
     {
      OFFSET 0.000000 12.259400 0.000000
      CHANNELS 3 Yrotation Xrotation Zrotation
      JOINT Head
      {
       OFFSET 0.000000 7.518700 0.267100
       CHANNELS 3 Yrotation Xrotation Zrotation
       End Site
       {
        OFFSET 0.000000 13.617700 0.141000
       }
      }
     }
     JOINT RightCollar
     {
      OFFSET -2.983800 8.314300 0.000000
      CHANNELS 3 Yrotation Xrotation Zrotation
      JOINT RightShoulder
      {
       OFFSET -16.133400 0.000000 0.000000
       CHANNELS 3 Yrotation Xrotation Zrotation
       JOINT RightElbow
       {
        OFFSET 0.000000 -29.822100 0.000000
        CHANNELS 3 Yrotation Xrotation Zrotation
        JOINT RightWrist
        {
         OFFSET 0.000000 -24.437700 0.010900
         CHANNELS 3 Yrotation Xrotation Zrotation
         End Site
         {
          OFFSET 0.000000 -18.312300 0.000000
         }
        }
       }
      }
     }
     JOINT LeftCollar
     {
      OFFSET 2.983800 8.314300 0.000000
      CHANNELS 3 Yrotation Xrotation Zrotation
      JOINT LeftShoulder
      {
       OFFSET 16.133400 0.000000 0.000000
       CHANNELS 3 Yrotation Xrotation Zrotation
       JOINT LeftElbow
       {
        OFFSET 0.000000 -29.822100 0.000000
        CHANNELS 3 Yrotation Xrotation Zrotation
        JOINT LeftWrist
        {
         OFFSET 0.000000 -24.437700 0.010900
         CHANNELS 3 Yrotation Xrotation Zrotation
         End Site
         {
          OFFSET 0.000000 -18.312300 0.000000
         }
        }
       }
      }
     }
    }
   }
  }
 }
 JOINT RightHip
 {
  OFFSET -11.206700 0.306200 0.030900
  CHANNELS 3 Yrotation Xrotation Zrotation
  JOINT RightKnee
  {
   OFFSET 0.000000 -57.334900 0.009400
   CHANNELS 3 Yrotation Xrotation Zrotation
   JOINT RightAnkle
   {
    OFFSET 0.000000 -43.376200 0.036600
    CHANNELS 3 Yrotation Xrotation Zrotation
    JOINT RightToe
    {
     OFFSET 0.000000 -10.035500 18.363100
     CHANNELS 3 Yrotation Xrotation Zrotation
     End Site
     {
      OFFSET 0.000000 -1.618500 7.239000
     }
    }
   }
  }
 }
 JOINT LeftHip
 {
  OFFSET 11.206700 0.306200 0.030900
  CHANNELS 3 Yrotation Xrotation Zrotation
  JOINT LeftKnee
  {
   OFFSET 0.000000 -57.334900 0.009400
   CHANNELS 3 Yrotation Xrotation Zrotation
   JOINT LeftAnkle
   {
    OFFSET 0.000000 -43.376200 0.036600
    CHANNELS 3 Yrotation Xrotation Zrotation
    JOINT LeftToe
    {
     OFFSET 0.000000 -10.035500 18.363100
     CHANNELS 3 Yrotation Xrotation Zrotation
     End Site
     {
      OFFSET 0.000000 -1.618500 7.239000
     }
    }
   }
  }
 }
}
MOTION
Frames: 11
Frame Time: 0.008333
0.000000 110.232800 0.000000 0.000000 -5.767877 0.000000 0.000000 11.653817 0.000000 0.000000 -5.885947 0.000000 0.000000 -0.000000 0.000000 0.000000 -0.000000 0.000000 0.000000 12.528835 0.000000 0.000000 0.711642 0.000000 0.000000 -0.000000 0.000000 0.000000 0.000000 -90.000000 0.000000 -2.309062 0.000000 0.000000 2.309062 0.000000 0.000000 -0.000000 0.000000 0.000000 -0.000000 90.000000 0.000000 -2.309062 0.000000 0.000000 2.309062 0.000000 0.000000 8.520406 0.000000 0.000000 1.905762 0.000000 -0.000000 -4.658285 0.000000 0.000000 -0.000000 0.000000 0.000000 8.520406 0.000000 0.000000 1.905762 0.000000 -0.000000 -4.658285 0.000000 0.000000 -0.000000 0.000000
-96.530253 64.271974 88.636955 173.517781 -34.928994 -2.459561 3.286986 24.587352 2.315402 0.452309 3.938894 0.473692 0.725763 6.230678 0.760383 2.790894 20.416447 2.893583 0.568453 14.089642 -0.718223 1.347929 -9.618234 -1.571711 -1.373429 0.904100 -2.695526 -0.167164 -19.614981 -0.821786 -86.049808 -37.409682 101.650227 -17.910016 -0.161143 14.388395 -6.271281 0.221626 -0.739260 6.839173 -21.045652 2.183694 78.832847 -17.155259 -105.836706 27.055645 -0.090968 -9.320777 -3.488206 -46.353576 2.792494 -125.361805 85.045208 -121.351364 -1.361992 -10.133046 -2.782557 0.572784 -0.871314 0.305621 -2.170430 -42.708882 3.548194 77.195239 83.229816 67.338963 -5.352217 -13.284851 8.488202 0.257047 1.090665 0.103341
-96.536315 64.272406 88.642558 173.531563 -34.885725 -2.462648 3.282417 24.590618 2.320071 0.465478 4.007287 0.486373 0.731961 6.266343 0.766285 2.805559 20.463477 2.906926 0.578671 14.112981 -0.746456 1.377563 -9.574118 -1.628319 -1.395507 0.949228 -2.694756 -0.182108 -19.630542 -0.790361 -86.111282 -37.492271 101.596582 -17.875557 -0.254467 14.103095 -6.293787 0.255243 -0.726775 6.837973 -21.052692 2.162365 78.897986 -17.159383 -105.745382 26.966150 -0.160060 -9.107561 -3.504702 -46.395903 2.793998 -125.306548 85.049599 -121.302196 -1.360153 -10.128585 -2.776620 0.571247 -0.871197 0.303318 -2.179989 -42.754106 3.521869 76.912944 83.254205 67.086903 -5.323946 -13.242932 8.460326 0.276201 1.092249 0.117482
-96.541116 64.279074 88.640714 173.526756 -34.881069 -2.458128 3.326187 24.740622 2.363808 0.456043 3.962688 0.476327 0.738610 6.301450 0.772126 2.821868 20.509321 2.920349 0.585197 14.125700 -0.776982 1.401344 -9.549697 -1.688125 -1.425198 0.993323 -2.694950 -0.197789 -19.636292 -0.753527 -86.166255 -37.556057 101.558342 -17.838210 -0.343182 13.856012 -6.321274 0.291051 -0.710004 6.828600 -21.047075 2.141008 78.990606 -17.220272 -105.663929 26.858351 -0.223368 -8.897298 -3.498259 -46.395917 2.792382 -125.240642 85.052252 -121.236621 -1.357784 -10.125720 -2.773176 0.570621 -0.873660 0.302990 -2.173704 -42.760721 3.501830 76.802749 83.255250 66.989599 -5.326133 -13.176712 8.487108 0.298577 1.062625 0.094957
-96.545023 64.285166 88.640586 173.513881 -34.865707 -2.453490 3.367316 24.830362 2.397652 0.455751 3.963184 0.476143 0.745829 6.335572 0.777934 2.840243 20.553416 2.934093 0.589837 14.130292 -0.808273 1.422039 -9.540418 -1.748731 -1.460668 1.036260 -2.696205 -0.216248 -19.627959 -0.712263 -86.212043 -37.597629 101.533804 -17.807122 -0.420889 13.658152 -6.352725 0.330443 -0.690512 6.807406 -21.027522 2.120664 79.110294 -17.342850 -105.591579 26.731236 -0.271794 -8.695477 -3.481934 -46.407699 2.795921 -125.113126 85.055267 -121.105265 -1.357671 -10.120385 -2.767539 0.570493 -0.873457 0.301681 -2.167081 -42.771324 3.479814 76.733167 83.232028 66.927283 -5.308360 -13.137758 8.505894 0.281722 1.053469 0.077777
-96.549155 64.290459 88.641607 173.506143 -34.840926 -2.449989 3.397347 24.887916 2.422675 0.460291 3.984534 0.479927 0.753078 6.367607 0.783948 2.858967 20.594348 2.948988 0.593974 14.130757 -0.839954 1.442026 -9.538919 -1.809897 -1.495642 1.076824 -2.697980 -0.238107 -19.603056 -0.669422 -86.245692 -37.621811 101.517838 -17.786802 -0.489846 13.513461 -6.381177 0.368585 -0.670432 6.766058 -20.992418 2.103050 79.258720 -17.527096 -105.524569 26.591837 -0.290985 -8.503054 -3.471713 -46.429612 2.799241 -125.082504 85.071616 -121.077076 -1.367252 -10.109932 -2.747079 0.562561 -0.875899 0.288860 -2.172610 -42.792100 3.458139 76.562701 83.224793 66.776244 -5.289518 -13.090921 8.499143 0.267928 1.073574 0.088519
-96.554020 64.293453 88.645136 173.507174 -34.798610 -2.447405 3.418267 24.929555 2.441817 0.464239 4.003883 0.483857 0.759475 6.396600 0.790250 2.875523 20.631032 2.965161 0.597504 14.131663 -0.871594 1.460937 -9.536632 -1.870839 -1.525768 1.114103 -2.698566 -0.259058 -19.562357 -0.628372 -86.272772 -37.629967 101.509055 -17.770978 -0.545443 13.422586 -6.403636 0.402589 -0.650283 6.708792 -20.941974 2.088348 79.433337 -17.769176 -105.460751 26.442106 -0.265500 -8.329995 -3.464690 -46.470370 2.797961 -125.038945 85.082527 -121.032566 -1.374624 -10.104488 -2.734766 0.560500 -0.874477 0.284816 -2.190770 -42.831311 3.435894 76.386705 83.214297 66.612253 -5.267018 -13.044056 8.493047 0.274008 1.057715 0.079536
-96.556354 64.298637 88.644738 173.507869 -34.775075 -2.451204 3.445262 24.988841 2.469941 0.467400 4.021034 0.487794 0.764548 6.422210 0.796567 2.888665 20.663368 2.981671 0.599012 14.137051 -0.902407 1.475673 -9.525868 -1.929319 -1.549593 1.151766 -2.696252 -0.279258 -19.509874 -0.590606 -86.299933 -37.624403 101.508132 -17.754754 -0.582190 13.384911 -6.421078 0.436462 -0.634007 6.649147 -20.879978 2.080438 79.617464 -18.052605 -105.398939 26.274166 -0.187121 -8.196226 -3.434337 -46.489495 2.791411 -124.974696 85.090533 -120.950410 -1.392410 -10.100831 -2.724603 0.567027 -0.872858 0.287659 -2.241317 -42.851791 3.420883 76.344098 83.179067 66.570337 -5.212473 -13.001212 8.486609 0.244172 1.035684 0.053321
-96.558645 64.300645 88.647393 173.528130 -34.730989 -2.465720 3.448843 25.006451 2.490841 0.476596 4.055258 0.496144 0.768437 6.445153 0.803003 2.898613 20.692256 2.998680 0.596146 14.147838 -0.932344 1.481571 -9.505096 -1.984261 -1.570840 1.191132 -2.692257 -0.300065 -19.449684 -0.554248 -86.326992 -37.614232 101.512129 -17.738255 -0.595674 13.394061 -6.437004 0.471962 -0.625793 6.598230 -20.811142 2.082777 79.787387 -18.347849 -105.336997 26.088672 -0.061456 -8.118007 -3.442595 -46.532392 2.796475 -125.003359 85.107926 -120.974827 -1.404543 -10.083924 -2.714499 0.562760 -0.878748 0.289755 -2.290418 -42.896892 3.409977 76.171213 83.170809 66.424377 -5.201806 -12.944472 8.449396 0.268740 1.056117 0.078218
-96.550911 64.305893 88.645625 173.490029 -34.716099 -2.486352 3.506402 25.007792 2.543584 0.484403 4.081448 0.502543 0.785281 6.508952 0.819102 2.905942 20.718422 3.015810 0.587739 14.163196 -0.960463 1.476140 -9.476213 -2.033671 -1.593865 1.230401 -2.687719 -0.322810 -19.382164 -0.513688 -86.347087 -37.613132 101.514841 -17.718116 -0.581971 13.438719 -6.453335 0.509557 -0.623027 6.562355 -20.739103 2.093233 79.928579 -18.626813 -105.275624 25.897794 0.098863 -8.097681 -3.451645 -46.546503 2.861357 -125.077983 85.131483 -121.055544 -1.377554 -10.063438 -2.686907 0.509389 -0.887149 0.264637 -2.327995 -42.909728 3.459096 76.163856 83.145012 66.407572 -5.151065 -12.880793 8.473892 0.231800 1.002285 0.036363
-96.552173 64.306576 88.647231 173.502073 -34.672205 -2.497789 3.527504 25.038587 2.575895 0.488979 4.110899 0.508022 0.779761 6.504827 0.819549 2.910442 20.741260 3.030804 0.576133 14.182757 -0.984622 1.463197 -9.439808 -2.074242 -1.613681 1.269777 -2.680252 -0.350630 -19.307417 -0.466206 -86.359567 -37.634402 101.514429 -17.688074 -0.543671 13.498058 -6.464441 0.551450 -0.618943 6.544076 -20.665341 2.107615 80.031250 -18.867335 -105.217782 25.712979 0.275768 -8.120048 -3.445480 -46.594968 2.868315 -125.111743 85.144404 -121.087181 -1.390281 -10.035378 -2.668034 0.504209 -0.899528 0.262722 -2.377372 -42.952138 3.448739 76.072008 83.124744 66.327694 -5.119181 -12.839731 8.450280 0.220355 1.007622 0.040529
